<?xml version="1.0" encoding="UTF-8" standalone="no"?>
<!-- Created with Inkscape (http://www.inkscape.org/) -->

<svg
   xmlns:dc="http://purl.org/dc/elements/1.1/"
   xmlns:cc="http://creativecommons.org/ns#"
   xmlns:rdf="http://www.w3.org/1999/02/22-rdf-syntax-ns#"
   xmlns:svg="http://www.w3.org/2000/svg"
   xmlns="http://www.w3.org/2000/svg"
   xmlns:sodipodi="http://sodipodi.sourceforge.net/DTD/sodipodi-0.dtd"
   xmlns:inkscape="http://www.inkscape.org/namespaces/inkscape"
   id="svg2"
   version="1.1"
   inkscape:version="0.48.4 r9939"
   width="611.88538"
   height="611.88538"
   xml:space="preserve"
   sodipodi:docname="lua-logo-nolabel.pdf"><metadata
     id="metadata8"><rdf:RDF><cc:Work
         rdf:about=""><dc:format>image/svg+xml</dc:format><dc:type
           rdf:resource="http://purl.org/dc/dcmitype/StillImage" /><dc:title></dc:title></cc:Work></rdf:RDF></metadata><defs
     id="defs6" /><sodipodi:namedview
     pagecolor="#ffffff"
     bordercolor="#666666"
     borderopacity="1"
     objecttolerance="10"
     gridtolerance="10"
     guidetolerance="10"
     inkscape:pageopacity="0"
     inkscape:pageshadow="2"
     inkscape:window-width="1920"
     inkscape:window-height="1018"
     id="namedview4"
     showgrid="false"
     fit-margin-top="10"
     fit-margin-left="10"
     fit-margin-bottom="10"
     fit-margin-right="10"
     inkscape:zoom="0.67425131"
     inkscape:cx="316.53395"
     inkscape:cy="235.89978"
     inkscape:window-x="-2"
     inkscape:window-y="-3"
     inkscape:window-maximized="1"
     inkscape:current-layer="g10" /><g
     id="g10"
     inkscape:groupmode="layer"
     inkscape:label="lua-logo-nolabel"
     transform="matrix(1.25,0,0,-1.25,-14.057512,625.94286)"><g
       id="g12"
       transform="scale(0.1,0.1)"><path
         d="m 4370.2,2560 c 0,999.74 -810.46,1810.2 -1810.2,1810.2 -999.74,0 -1810.191,-810.46 -1810.191,-1810.2 0,-999.74 810.451,-1810.191 1810.191,-1810.191 999.74,0 1810.2,810.451 1810.2,1810.191"
         style="fill:#000080;fill-opacity:1;fill-rule:nonzero;stroke:none"
         id="path14"
         inkscape:connector-curvature="0" /><path
         d="m 3840,3309.81 c 0,292.82 -237.37,530.19 -530.19,530.19 -292.82,0 -530.2,-237.37 -530.2,-530.19 0,-292.82 237.38,-530.2 530.2,-530.2 292.82,0 530.19,237.38 530.19,530.2"
         style="fill:#ffffff;fill-opacity:1;fill-rule:nonzero;stroke:none"
         id="path16"
         inkscape:connector-curvature="0" /><path
         d="m 4900.39,4370.2 c 0,292.81 -237.38,530.19 -530.19,530.19 -292.82,0 -530.2,-237.38 -530.2,-530.19 0,-292.82 237.38,-530.2 530.2,-530.2 292.81,0 530.19,237.38 530.19,530.2"
         style="fill:#000080;fill-opacity:1;fill-rule:nonzero;stroke:none"
         id="path18"
         inkscape:connector-curvature="0" /><g
         id="g20"
         transform="scale(10,10)"><text
           transform="matrix(1,0,0,-1,120.127,165.49)"
           id="text22"><tspan
             style="font-size:162.91700745px;font-variant:normal;font-weight:normal;writing-mode:lr-tb;fill:#ffffff;fill-opacity:1;fill-rule:nonzero;stroke:none;font-family:Helvetica;-inkscape-font-specification:Helvetica"
             x="0 90.581856 181.16371"
             y="0"
             sodipodi:role="line"
             id="tspan24">Lua</tspan></text>
</g><path
         d="M 4645.3,3622.51 C 4812.97,3293.43 4900.39,2929.34 4900.39,2560 4900.39,1267.44 3852.56,219.613 2560,219.613 1267.44,219.613 219.613,1267.44 219.613,2560 c 0,1292.56 1047.827,2340.39 2340.387,2340.39 452.45,0 895.21,-131.16 1274.67,-377.58"
         style="fill:none;stroke:#808080;stroke-width:54.30580139;stroke-linecap:butt;stroke-linejoin:miter;stroke-miterlimit:10;stroke-opacity:1;stroke-dasharray:204.237;stroke-dashoffset:0"
         id="path26"
         inkscape:connector-curvature="0" /></g></g></svg>